<mxfile host="app.diagrams.net" modified="2023-04-27T20:20:33.275Z" agent="Mozilla/5.0 (X11; Linux x86_64) AppleWebKit/537.36 (KHTML, like Gecko) Chrome/112.0.0.0 Safari/537.36" version="21.2.3" etag="QpdwzIR1U9KXEgfB7DgB" type="github">
  <diagram name="Pagina-1" id="J8G7F-VVHmofS4jds_gC">
    <mxGraphModel>
      <root>
        <mxCell id="0" />
        <mxCell id="1" parent="0" />
      </root>
    </mxGraphModel>
  </diagram>
</mxfile>
